<?xml version="1.0" encoding="UTF-8"?><svg id="uuid-a8245522-c5cb-4e20-94e0-924ba8635f44" xmlns="http://www.w3.org/2000/svg" viewBox="0 0 512 512"><defs><style>.uuid-43a3050f-e70d-42df-8bbe-8e472b5dd887{fill:#fff;fill-rule:evenodd;}</style></defs><g id="uuid-b89adc08-f8af-49d7-9ff9-c700df2fdc54"><path class="uuid-43a3050f-e70d-42df-8bbe-8e472b5dd887" d="M179.4845,98.627c19.8273-4.4451,59.182-6.6379,80.9675-6.6379,22.7418,0,52.9157,1.3238,76.6169,6.6379,10.082,2.2608,15.4784,6.0125,17.9595,10.8077,2.4175,4.6716,1.7156,9.769,1.168,13.6362-2.1776,15.3777-5.2237,33.819-8.6982,54.8524l-.0103.0627c-1.815,10.9859-6.3988,18.6423-12.4351,23.5387-6.0138,4.878-13.2821,6.864-20.2244,6.864h-117.4539c-9.0765,0-16.1164-2.2935-21.2143-6.2269-5.1055-3.9392-8.0781-9.3818-9.2569-15.3271-2.2707-11.4542-5.5599-29.7258-9.2533-50.2416-.5354-2.974-1.0794-5.9955-1.6296-9.0496-1.8597-10.3179-.2265-17.0028,4.5902-21.4175,2.3128-2.1189,5.2089-3.565,8.379-4.6887,3.1656-1.1219,6.748-1.9698,10.4947-2.8102ZM260.452,96.9829c-21.7157,0-60.663,2.1968-79.988,6.5296-3.7602.843-7.0981,1.6403-9.979,2.6615-2.8764,1.0194-5.152,2.2143-6.8492,3.7696-3.2023,2.9346-4.9376,7.7339-3.2095,17.3225.5507,3.0559,1.0946,6.0774,1.63,9.0505,3.6952,20.5271,6.9764,38.7521,9.2385,50.1642.997,5.0276,3.462,9.4606,7.6004,12.6535,4.1461,3.1987,10.1563,5.2944,18.4793,5.2944h117.4539c6.1083,0,12.3258-1.7446,17.4044-5.8643,5.0567-4.1013,9.1727-10.7097,10.8381-20.7912l.0031-.0197c3.4799-21.0683,6.5193-39.4675,8.6892-54.7933.5726-4.0444.958-7.7254-.711-10.9514-1.6054-3.1025-5.4694-6.3675-14.9632-8.4963-23.2034-5.2026-52.9747-6.5296-75.6373-6.5296Z"/><path class="uuid-43a3050f-e70d-42df-8bbe-8e472b5dd887" d="M112.6855,103.6646c19.4208-2.2013,37.8478-2.5357,48.9178-2.1646,1.1148.0376,2.0321.89,2.1507,1.9994s-.5981,2.1364-1.6797,2.4086c-2.1762.5475-3.7288,2.8321-4.5544,6.6845-.7839,3.6572-.6989,7.8704-.3613,10.6519,1.4801,7.4549,5.2733,27.8723,8.7761,50.7757,3.6223,23.6878-5.9995,40.4265-11.5938,46.0544l-.0045.0049c-7.4719,7.5163-15.2206,15.3119-26.082,30.6095-11.0575,15.5734-26.8668,50.6262-41.0881,84.8083-10.6841,25.6804-20.3874,50.6557-26.4097,66.1561-1.9734,5.0795-3.5515,9.1418-4.6394,11.8777-.0228.0573-.0479.1141-.0757.1692-.1061.2136-.2189.4517-.3411.7087-.3976.8381-.8914,1.879-1.5562,2.931l13.9724,1.8892c2.4278-.0179,4.2745-.488,5.8218-1.3431,1.5915-.8761,3.0255-2.2443,4.4765-4.2786,2.5089-3.5184,4.7939-8.5939,7.9653-15.6383.6102-1.3556,1.2531-2.7842,1.9367-4.2884,5.4077-11.8969,10.9469-26.1353,15.7372-38.4499l.4159-1.0691c2.4363-6.2619,4.6721-11.9923,6.5743-16.5722,1.8713-4.5056,3.5059-8.1162,4.7437-9.9844,3.1374-4.7348,7.7388-11.6274,15.6352-16.462,7.942-4.8624,18.9615-7.5029,34.7117-4.7446h179.3878c12.5609-2.7663,23.639-1.2468,32.7763,3.9696,9.1696,5.2353,16.1719,14.0718,20.7907,25.1799,5.3244,12.8048,8.6991,22.368,11.8575,31.5107.2991.8667.5968,1.7294.8936,2.5908,2.8321,8.2169,5.6145,16.2879,9.6437,26.3645.4208,1.0463.8238,2.0871,1.2267,3.1168,2.0728,5.3253,4.0292,10.3443,7.0377,14.1542,1.7415,2.2049,3.783,3.9115,6.3259,4.968,2.5339,1.0476,5.726,1.5132,9.8671.9983l11.8503-2.0102c-.6312-1.0203-1.1058-2.0213-1.4908-2.8325-.1254-.257-.2372-.4951-.3447-.7087-.0269-.0551-.0493-.1119-.0716-.1692-1.0879-2.7358-2.6682-6.7973-4.6426-11.8763-6.0214-15.5004-15.7229-40.4761-26.4093-66.1575-14.2204-34.1821-30.0297-69.2349-41.0872-84.8083-10.8614-15.2976-18.61-23.0932-26.0815-30.6095l-.005-.0049c-5.5943-5.6279-15.2161-22.3666-11.5938-46.0544,3.5027-22.903,7.296-43.3208,8.7761-50.7757.3376-2.7815.4226-6.9947-.3613-10.6519-.8255-3.8524-2.3781-6.1369-4.5543-6.6845-1.0816-.2722-1.7984-1.2992-1.6798-2.4086.1187-1.1094,1.036-1.9618,2.1507-1.9994,11.0701-.3711,29.497-.0367,48.9178,2.1646,19.376,2.1968,39.9653,6.2757,55.2182,13.4979.4387.2064.7924.5484,1.0207.9746,11.7967,22.2489,37.9239,83.8399,48.4983,152.9866,6.6035,43.203,6.0796,77.138,1.0745,101.7502-4.9783,24.482-14.5052,40.2536-26.4137,46.2433-7.7182,3.8815-12.983,4.2799-16.7526,2.2564-.1388-.0761-.2731-.1522-.4029-.2328l-14.9126,2.5339c-.0313.0045-.0672.0089-.0985.0134-4.7858.5999-8.7926.103-12.1861-1.3028-3.389-1.4013-6.0125-3.6532-8.1211-6.3245-3.4696-4.3887-5.7125-10.1666-7.7719-15.4762-.3805-.9894-.7611-1.9627-1.1371-2.9077-4.074-10.1827-6.8895-18.3509-9.7207-26.5655-.2973-.8622-.595-1.725-.8936-2.5908-3.1464-9.1087-6.487-18.5724-11.7599-31.2537-4.335-10.4262-10.7634-18.3786-18.8769-23.0108-8.0799-4.613-18.0428-6.0564-29.7329-3.1061-.179.0452-.3631.068-.548.1987h-179.883c-.1468-.1306-.2937-.1449-.4383-.174-14.9242-2.9803-24.8312-.4285-31.7162,3.787-6.967,4.2652-11.1005,10.3784-14.2406,15.1167-.9558,1.4424-2.4314,4.6296-4.3413,9.2283-1.879,4.5243-4.0955,10.2046-6.5363,16.4786l-.4356,1.1197c-4.776,12.277-10.3537,26.6156-15.8142,38.6285-.6541,1.4389-1.2782,2.8272-1.879,4.1631-3.1553,7.0185-5.6646,12.5994-8.4542,16.5104-1.7053,2.3911-3.607,4.3027-5.9606,5.6011-2.3669,1.3028-5.0329,1.8982-8.1287,1.8982-.1003,0-.2006-.0045-.3-.0179l-17.5298-2.3728c-.0336.0224-.0672.0403-.1007.0582-3.7682,2.0235-9.0335,1.6251-16.7517-2.2564-11.9086-5.9897-21.4377-21.7614-26.4153-46.2433-5.0041-24.6123-5.529-58.5472,1.0778-101.7502,10.5744-69.1467,36.7012-130.7377,48.4961-152.9866.2261-.4262.5838-.7682,1.0203-.9746,15.2551-7.2221,35.8412-11.3011,55.2186-13.4979ZM48.4446,417.1058c-.0376.0242-.0748.0493-.111.0774-.133.0851-.2708.1701-.4146.2462-1.7979.967-5.3074,1.3655-12.6191-2.3114-10.0292-5.0446-19.1464-19.0663-24.0401-43.1359-4.8674-23.9398-5.4392-57.3156,1.1161-100.1815,10.3815-67.8864,35.9106-128.4684,47.6782-150.9062,14.5177-6.71,34.1982-10.6345,53.1359-12.7811,15.9499-1.8082,31.2219-2.3401,42.1639-2.2586-1.1085,1.7751-1.793,3.8466-2.2116,5.7998-.9276,4.3265-.8027,9.1163-.4168,12.2211.0067.0537.0152.107.026.1603,1.4563,7.3265,5.2532,27.7443,8.7577,50.6607,3.3971,22.2158-5.7004,37.551-10.3434,42.2217-7.54,7.5857-15.4888,15.5832-26.5619,31.1789-11.4072,16.0658-27.4063,51.6339-41.5712,85.6804-10.7088,25.7395-20.455,50.8259-26.4733,66.3169-1.9421,4.998-3.4956,8.9972-4.5687,11.6972-.12.2427-.2368.4813-.3514.7163-.9464,1.9381-1.7509,3.5856-3.1947,4.5978ZM463.4824,417.0538c.188.1384.3895.2637.5999.3756,1.7952.967,5.3052,1.3655,12.6204-2.3114,10.0283-5.0446,19.1433-19.0663,24.0365-43.1359,4.8709-23.9398,5.4395-57.3156-1.1148-100.1815-10.3819-67.8864-35.9092-128.4684-47.6791-150.9062-14.5186-6.71-34.1991-10.6345-53.135-12.7811-15.9499-1.8082-31.2219-2.3401-42.1639-2.2586,1.1085,1.7751,1.793,3.8466,2.2116,5.7998.9276,4.3265.8023,9.1163.4168,12.2211-.0031.026-.0071.0519-.0112.0774-.0045.0278-.0094.0555-.0148.0828-1.4563,7.3265-5.2532,27.7443-8.7577,50.6607-3.3971,22.2158,5.7004,37.551,10.3435,42.2217,7.54,7.5857,15.4888,15.5832,26.5619,31.1789,11.4071,16.0658,27.4063,51.6339,41.569,85.6804,10.7088,25.7395,20.455,50.8254,26.4764,66.3164,1.943,4.9985,3.4965,8.9977,4.5664,11.6982.1209.2422.2373.4813.3537.7158.8954,1.8378,1.6654,3.4141,2.9726,4.4353.0537.0349.103.0716.1478.1106Z"/><path class="uuid-43a3050f-e70d-42df-8bbe-8e472b5dd887" d="M412.6919,137.185c-6.1813,0-11.1923,5.011-11.1923,11.1923s5.011,11.1923,11.1923,11.1923,11.1923-5.011,11.1923-11.1923-5.0097-11.1923-11.1923-11.1923ZM397.0227,148.3773c0-8.6539,7.0153-15.6692,15.6692-15.6692s15.6692,7.0153,15.6692,15.6692-7.0153,15.6692-15.6692,15.6692-15.6692-7.0153-15.6692-15.6692Z"/><path class="uuid-43a3050f-e70d-42df-8bbe-8e472b5dd887" d="M412.6919,208.8155c-6.1813,0-11.1923,5.011-11.1923,11.1923s5.011,11.1923,11.1923,11.1923,11.1923-5.011,11.1923-11.1923-5.0097-11.1923-11.1923-11.1923ZM397.0227,220.0078c0-8.6539,7.0153-15.6692,15.6692-15.6692s15.6692,7.0153,15.6692,15.6692-7.0153,15.6692-15.6692,15.6692-15.6692-7.0153-15.6692-15.6692Z"/><path class="uuid-43a3050f-e70d-42df-8bbe-8e472b5dd887" d="M376.8766,173.0003c-6.1813,0-11.1923,5.011-11.1923,11.1923s5.011,11.1923,11.1923,11.1923,11.1923-5.011,11.1923-11.1923-5.011-11.1923-11.1923-11.1923ZM361.2075,184.1925c0-8.6539,7.0153-15.6692,15.6692-15.6692s15.6692,7.0153,15.6692,15.6692-7.0153,15.6692-15.6692,15.6692-15.6692-7.0153-15.6692-15.6692Z"/><path class="uuid-43a3050f-e70d-42df-8bbe-8e472b5dd887" d="M338.8229,226.7231c-17.3077,0-31.3383,14.0306-31.3383,31.3384s14.0306,31.3383,31.3383,31.3383,31.3383-14.0306,31.3383-31.3383-14.0306-31.3384-31.3383-31.3384ZM303.0077,258.0615c0-19.7803,16.0349-35.8153,35.8152-35.8153s35.8152,16.0349,35.8152,35.8153-16.0349,35.8152-35.8152,35.8152-35.8152-16.0349-35.8152-35.8152Z"/><path class="uuid-43a3050f-e70d-42df-8bbe-8e472b5dd887" d="M173.1774,226.7231c-17.3077,0-31.3383,14.0306-31.3383,31.3384s14.0306,31.3383,31.3383,31.3383,31.3383-14.0306,31.3383-31.3383-14.0306-31.3384-31.3383-31.3384ZM137.3622,258.0615c0-19.7803,16.0349-35.8153,35.8152-35.8153s35.8152,16.0349,35.8152,35.8153-16.0349,35.8152-35.8152,35.8152-35.8152-16.0349-35.8152-35.8152Z"/><path class="uuid-43a3050f-e70d-42df-8bbe-8e472b5dd887" d="M173.1774,235.677c-12.3625,0-22.3845,10.022-22.3845,22.3845s10.022,22.3845,22.3845,22.3845,22.3845-10.0216,22.3845-22.3845-10.022-22.3845-22.3845-22.3845ZM146.316,258.0615c0-14.8351,12.0263-26.8615,26.8614-26.8615s26.8614,12.0263,26.8614,26.8615-12.0263,26.8614-26.8614,26.8614-26.8614-12.0263-26.8614-26.8614Z"/><path class="uuid-43a3050f-e70d-42df-8bbe-8e472b5dd887" d="M338.8229,235.677c-12.3625,0-22.3845,10.022-22.3845,22.3845s10.022,22.3845,22.3845,22.3845,22.3845-10.0216,22.3845-22.3845-10.022-22.3845-22.3845-22.3845ZM311.9615,258.0615c0-14.8351,12.0263-26.8615,26.8614-26.8615s26.8614,12.0263,26.8614,26.8615-12.0263,26.8614-26.8614,26.8614-26.8614-12.0263-26.8614-26.8614Z"/><path class="uuid-43a3050f-e70d-42df-8bbe-8e472b5dd887" d="M441.13,106.7278v3.9322c-21.9833-6.7533-46.9928-8.8158-59.4-9.042v-7.5294c12.1702-2.8458,24.4955-1.4375,35.1369,1.6178,10.4633,3.0032,19.1551,7.5581,24.2631,11.0213ZM418.5949,91.395c-11.6334-3.3398-25.4673-4.8818-39.1944-1.2119-.9677.2587-1.6305,1.1529-1.6305,2.1546v11.5095c0,1.2383.9973,2.2386,2.2356,2.2384,11.5955-.0012,39.7008,2.0075,63.1193,9.7662.6871.2268,1.4371.1114,2.021-.3108.5883-.4221.9341-1.0994.9341-1.8207v-8.1737c0-.7249-.3503-1.4057-.9431-1.8269-5.3399-3.8142-14.9237-8.9888-26.542-12.3247Z"/><path class="uuid-43a3050f-e70d-42df-8bbe-8e472b5dd887" d="M68.89,106.728v3.9323c21.9843-6.7534,46.9925-8.816,59.4-9.0422v-7.5295c-12.1705-2.8459-24.4961-1.4376-35.1386,1.6179-10.4609,3.0033-19.1546,7.5583-24.2614,11.0216ZM91.4234,91.3948c11.6346-3.3398,25.4692-4.8819,39.1961-1.2119.9677.2587,1.6305,1.1529,1.6305,2.1546v11.5098c0,1.2383-.9973,2.2386-2.2356,2.2384-11.5957-.0012-39.7025,2.0075-63.1228,9.7664-.6844.2268-1.4363.1114-2.021-.3108-.5843-.4222-.9306-1.0994-.9306-1.8207v-8.1775c0-.7272.352-1.4031.9439-1.8257,5.3406-3.8141,14.9231-8.9873,26.5396-12.3226Z"/><path class="uuid-43a3050f-e70d-42df-8bbe-8e472b5dd887" d="M397.9758,103.64c-19.6572-2.178-38.3084-2.5084-49.5119-2.1413-1.1179.0367-2.037.8922-2.153,2.0048-.1164,1.1121.6062,2.1395,1.6918,2.4063,2.2308.5484,3.7919,2.8178,4.622,6.6034.7911,3.607.7051,7.7656.3644,10.5122-1.4989,7.3793-5.3387,27.5804-8.8844,50.2403-3.672,23.4666,6.0823,40.0455,11.7465,45.6143l.0045.0045c7.5646,7.4375,15.409,15.1507,26.4043,30.2858,11.1918,15.4055,27.195,50.0836,41.5927,83.9057,10.8162,25.4087,20.6385,50.119,26.7361,65.4559,1.9967,5.0262,3.595,9.046,4.6963,11.7537.0224.0582.0493.115.0806.171.1075.2113.2194.4472.3447.7015.976,2.0141,2.5295,5.2111,5.726,6.8935,3.7875,1.9877,9.0881,1.6072,16.9003-2.2335,12.0429-5.9216,21.6996-21.5295,26.7406-45.771,5.0678-24.3633,5.6006-57.95-1.0879-100.7026-10.7088-68.4264-37.1628-129.3736-49.1027-151.3906-.2328-.4235-.591-.762-1.0297-.9643-15.4364-7.142-36.2674-11.1762-55.8812-13.3497ZM451.3052,120.7449c11.9131,22.1996,37.7537,82.1338,48.261,149.2918,6.6348,42.4084,6.0573,75.4224,1.1282,99.0985-4.9514,23.7979-14.1694,37.6691-24.3364,42.6654-7.4048,3.6406-10.9863,3.2587-12.8353,2.2868-1.8131-.9531-2.704-2.7318-3.7695-4.8664-.1164-.2319-.2328-.4687-.3537-.7087-1.0879-2.6709-2.6593-6.6267-4.6246-11.5705-6.0931-15.3276-15.9602-40.1502-26.8032-65.6194-14.3395-33.686-30.5388-68.8839-42.0896-84.7836-11.211-15.4323-19.2587-23.3457-26.8919-30.8508-4.6998-4.6215-13.8972-19.7781-10.4621-41.7301,3.5475-22.6737,7.3909-42.8753,8.8652-50.123.0112-.0546.0201-.1092.0273-.1643.3913-3.0774.518-7.8252-.4226-12.1163-.4222-1.9242-1.1089-3.9553-2.2107-5.6995,11.0808-.0806,26.5454.4455,42.6958,2.2349,19.1786,2.1252,39.1156,6.0103,53.8223,12.6553Z"/><path class="uuid-43a3050f-e70d-42df-8bbe-8e472b5dd887" d="M114.0245,103.64c19.6572-2.178,38.3084-2.5084,49.5119-2.1413,1.1179.0367,2.037.8922,2.1529,2.0048.1164,1.1121-.6062,2.1395-1.6918,2.4063-2.2309.5484-3.7919,2.8178-4.622,6.6034-.7906,3.607-.7051,7.7652-.3644,10.5122,1.4989,7.3788,5.3387,27.58,8.8844,50.2403,3.6719,23.4666-6.0823,40.0455-11.7465,45.6143l-.004.004c-7.5646,7.4379-15.4095,15.1507-26.4048,30.2863-11.1918,15.4055-27.195,50.0836-41.5927,83.9057-10.8162,25.4087-20.639,50.1185-26.7356,65.4555-1.998,5.0267-3.5963,9.0465-4.6976,11.7541-.0237.0582-.0497.115-.0783.171-.1074.2113-.2216.4472-.3456.7015-.9782,2.0141-2.5312,5.2111-5.7286,6.8935-3.7852,1.9877-9.0854,1.6072-16.8963-2.2335-12.0456-5.9216-21.7009-21.5295-26.744-45.771-5.0683-24.3633-5.599-57.95,1.0905-100.7026,10.7068-68.4264,37.1604-129.3736,49.103-151.3906.2297-.4235.5901-.762,1.0274-.9643,15.4355-7.142,36.2679-11.1762,55.8821-13.3497ZM60.6961,120.7449c-11.9122,22.1996-37.7529,82.1338-48.261,149.2918-6.6357,42.4084-6.056,75.4224-1.1306,99.0985,4.9507,23.7979,14.1726,37.6691,24.3361,42.6654,7.4057,3.6406,10.989,3.2587,12.838,2.2868,1.8131-.9531,2.7014-2.7314,3.7678-4.8659.1164-.2324.2346-.4692.3559-.7091,1.0861-2.6709,2.6584-6.6267,4.6237-11.5705,6.0931-15.3276,15.9606-40.1502,26.8023-65.6194,14.34-33.686,30.5392-68.8839,42.0901-84.7836,11.2111-15.4323,19.2588-23.3457,26.8919-30.8508,4.6999-4.6215,13.8972-19.7776,10.4621-41.7301-3.5475-22.6737-7.3909-42.8753-8.8652-50.123-.0112-.0546-.0202-.1092-.0273-.1643-.3913-3.0774-.518-7.8252.4226-12.1163.4222-1.9242,1.1089-3.9553,2.2107-5.6995-11.0808-.0806-26.5454.4455-42.6958,2.2349-19.1786,2.1252-39.1143,6.0103-53.8214,12.6553Z"/><path class="uuid-43a3050f-e70d-42df-8bbe-8e472b5dd887" d="M448.5071,173.0003c-6.1826,0-11.1923,5.011-11.1923,11.1923s5.0097,11.1923,11.1923,11.1923,11.1923-5.011,11.1923-11.1923-5.0097-11.1923-11.1923-11.1923ZM432.8379,184.1925c0-8.6539,7.0153-15.6692,15.6692-15.6692s15.6692,7.0153,15.6692,15.6692-7.0153,15.6692-15.6692,15.6692-15.6692-7.0153-15.6692-15.6692Z"/><path class="uuid-43a3050f-e70d-42df-8bbe-8e472b5dd887" d="M240.331,282.6845c0-1.2361,1.0024-2.2385,2.2385-2.0258h26.8614c1.2361-.2126,2.2385.7898,2.2385,2.0258s-1.0024,2.2385-2.2385,2.9242h-26.8614c-1.2361-.6857-2.2385-1.6881-2.2385-2.9242Z"/><path class="uuid-43a3050f-e70d-42df-8bbe-8e472b5dd887" d="M97.4649,202.5536l-9.1462,9.5906c-.3972.4165-.6187.9698-.6187,1.5453v15.2306c0,1.2363,1.0022,2.2385,2.2385,2.2385h18.2931c1.2363,0,2.2385-1.0022,2.2385-2.2385v-15.2306c0-.5755-.2216-1.1289-.6187-1.5453l-9.1462-9.5906c-.882-.9249-2.3581-.9249-3.2401,0ZM104.4541,199.9251l9.1244,9.6276c1.1824,1.2476,1.8415,2.9011,1.8415,4.62v15.2206c0,3.7088-3.0066,6.7154-6.7154,6.7154h-18.2493c-3.7088,0-6.7154-3.0066-6.7154-6.7154v-15.2206c0-1.7189.6591-3.3724,1.8415-4.62l9.1244-9.6276c2.6486-2.7946,7.0997-2.7946,9.7483,0Z"/><path class="uuid-43a3050f-e70d-42df-8bbe-8e472b5dd887" d="M100.7051,174.6236l9.1466-9.591c.3969-.4162.6184-.9693.6184-1.5445v-15.2311c0-1.2363-1.0022-2.2385-2.2385-2.2385h-18.2931c-1.2363,0-2.2385,1.0022-2.2385,2.2385v15.2311c0,.5752.2214,1.1282.6184,1.5445l9.1466,9.591c.882.9249,2.3581.9249,3.2401,0ZM94.7059,178.2422l-9.1246-9.6283c-1.1823-1.2475-1.8412-2.9008-1.8412-4.6195v-15.2204c0-3.7088,3.0066-6.7154,6.7154-6.7154h18.2493c3.7088,0,6.7154,3.0066,6.7154,6.7154v15.2204c0,1.7187-.659,3.372-1.8412,4.6195l-9.1246,9.6283c-2.6485,2.7947-7.0998,2.7947-9.7483,0Z"/><path class="uuid-43a3050f-e70d-42df-8bbe-8e472b5dd887" d="M86.0936,187.4505l-9.7558-9.1462c-.415-.3891-.9626-.6056-1.5315-.6056h-15.5579c-1.2363,0-2.2385,1.0022-2.2385,2.2385v18.2931c0,1.2363,1.0022,2.2385,2.2385,2.2385h15.5579c.5689,0,1.1165-.2165,1.5315-.6056l9.7558-9.1462c.9434-.8844.9434-2.3819,0-3.2663ZM88.6114,193.4877l-9.7325,9.1244c-1.2448,1.1671-2.8872,1.8165-4.5936,1.8165h-15.51c-3.7088,0-6.7154-3.0066-6.7154-6.7154v-18.2493c0-3.7088,3.0066-6.7154,6.7154-6.7154h15.51c1.7064,0,3.3487.6495,4.5936,1.8165l9.7325,9.1244c2.8299,2.6531,2.8299,7.1451,0,9.7981Z"/><path class="uuid-43a3050f-e70d-42df-8bbe-8e472b5dd887" d="M113.0664,190.7168l9.7558,9.1462c.415.3891.9626.6056,1.5315.6056h15.5579c1.2363,0,2.2385-1.0022,2.2385-2.2385v-18.2931c0-1.2363-1.0022-2.2385-2.2385-2.2385h-15.5584c-.5686,0-1.1158.2164-1.5306.6053l-9.7562,9.1465c-.9434.8844-.9434,2.3819,0,3.2663ZM109.5586,183.6896l9.7325-9.1244c1.2448-1.1671,2.8872-1.8165,4.5936-1.8165h15.51c3.7088,0,6.7154,3.0066,6.7154,6.7154v18.2493c0,3.7088-3.0066,6.7154-6.7154,6.7154h-15.5103c-1.7061,0-3.3483-.6494-4.5929-1.8163l-9.7328-9.1246c-2.8299-2.6531-2.8299-7.1451,0-9.7981Z"/><path class="uuid-43a3050f-e70d-42df-8bbe-8e472b5dd887" d="M377.9623,117.1728c-2.3987-.5999-4.8292.8587-5.4287,3.2574l-4.4769,17.9076c-.5999,2.3987.8587,4.8292,3.2574,5.4291,2.3987.5995,4.8292-.8591,5.4291-3.2574l4.4769-17.9076c.5995-2.3987-.8591-4.8297-3.2578-5.4291Z"/><path class="uuid-43a3050f-e70d-42df-8bbe-8e472b5dd887" d="M134.0381,117.1728c2.3987-.5999,4.8292.8587,5.4287,3.2574l4.4769,17.9076c.5999,2.3987-.8587,4.8292-3.2574,5.4291-2.3987.5995-4.8292-.8591-5.4291-3.2574l-4.4769-17.9076c-.5995-2.3987.8591-4.8297,3.2578-5.4291Z"/><path class="uuid-43a3050f-e70d-42df-8bbe-8e472b5dd887" d="M235.8541,228.9616c0-1.2361,1.0024-2.2385,2.2385-2.753h35.8152c1.2361.5145,2.2385,1.5169,2.2385,2.753s-1.0024,2.2385-2.2385,2.197h-35.8152c-1.2361.0414-2.2385-.9605-2.2385-2.197Z"/><path class="uuid-43a3050f-e70d-42df-8bbe-8e472b5dd887" d="M226.9003,220.0078c0-1.2361,1.0024-2.2385,2.2385-2.7091h53.7229c1.2361.4707,2.2385,1.4731,2.2385,2.7091s-1.0024,2.2385-2.2385,2.2409h-53.7229c-1.2361-.0024-2.2385-1.0043-2.2385-2.2409Z"/></g></svg>